<svg id="Capa_1" enable-background="new 0 0 512 512" height="512" viewBox="0 0 512 512" width="512" xmlns="http://www.w3.org/2000/svg"><g><g><g><path d="m263.743 352.43v121.336h33v-121.225z" fill="#365f7e"/></g><path d="m278.743 443.77v-91.29l-15-.05v91.34 30h15 18v-25h-13c-2.761 0-5-2.239-5-5z" fill="#2c4d66"/><path d="m201.743 463.5h158c11.046 0 20 8.954 20 20v11c0 5.523-4.477 10-10 10h-178c-5.523 0-10-4.477-10-10v-11c0-11.046 8.955-20 20-20z" fill="#365f7e"/><path d="m211.743 504.5h-20c-5.52 0-10-4.48-10-10v-11c0-11.05 8.95-20 20-20h20c-11.05 0-20 8.95-20 20v11c0 5.52 4.48 10 10 10z" fill="#2c4d66"/><path d="m113.067 126.62c-6.365 18.283-9.824 37.928-9.824 58.38 0 98.031 79.469 177.5 177.5 177.5s177.5-79.469 177.5-177.5-79.469-177.5-177.5-177.5c-53.71 0-101.847 23.855-134.396 61.548z" fill="#dc4955"/><path d="m415.853 300.11c-32.55 38.18-81 62.39-135.11 62.39-98.03 0-177.5-79.47-177.5-177.5 0-20.45 3.46-40.09 9.82-58.37 5.3-.21 10.27-.65 14.61-1.18-2.9 12.72-4.43 25.96-4.43 39.55 0 98.03 79.47 177.5 177.5 177.5 43.93 0 84.12-15.96 115.11-42.39z" fill="#d82f3c"/><path d="m192.283 262.25-34.17 19.73c-1.41 4.15-4.43 12.45-9.12 21.97-3.28-3.63-6.41-7.4-9.38-11.29-6.67-8.73-12.55-18.09-17.53-27.99-2.28-4.53-4.37-9.16-6.26-13.9 11.08.61 20.46 2.06 25.28 2.92l33.12-19.12c4.7 10.08 10.81 19.39 18.06 27.68z" fill="#d82f3c"/><path d="m171.869 140.807c-5.56 13.649-8.625 28.57-8.625 44.193 0 64.79 52.71 117.5 117.5 117.5s117.5-52.71 117.5-117.5-52.71-117.5-117.5-117.5c-37.365 0-70.713 17.531-92.249 44.8z" fill="#f9f8f9"/><path d="m373.193 257.45c-21.53 27.41-54.97 45.05-92.45 45.05-64.79 0-117.5-52.71-117.5-117.5 0-15.62 3.06-30.54 8.63-44.19l12.59 7.27c-.81 5.53-1.22 11.18-1.22 16.92 0 64.79 52.71 117.5 117.5 117.5 27.31 0 52.48-9.37 72.45-25.05z" fill="#efedef"/><path d="m246.333 231.04-54.05 31.21c-7.25-8.29-13.36-17.6-18.06-27.68l52.37-30.24c3.83 10.73 10.78 20 19.74 26.71z" fill="#efedef"/><path d="m141.496 123.271c-11.182 2.235-52.117 8.979-78.389-5.886-30.432-17.218 20.568-105.553 50.695-87.807 23.812 14.026 39.442 53.134 43.683 64.819z" fill="#b2e5fb"/><path d="m58.393 113.45c1.28 1.56 2.84 2.88 4.71 3.94 26.28 14.86 67.21 8.12 78.39 5.88l15.99-28.87c-4.24-11.69-19.87-50.8-43.68-64.82-3.13-1.85-6.5-2.55-9.97-2.29 18.16 17.29 30.04 47.15 33.65 57.11l-15.155 27.362c-9.179 1.84-39.235 8.218-63.935 1.688z" fill="#91dafa"/><path d="m224.867 171.405c-1.061 4.36-1.623 8.913-1.623 13.595 0 31.706 25.794 57.5 57.5 57.5s57.5-25.794 57.5-57.5-25.794-57.5-57.5-57.5c-15.121 0-28.897 5.867-39.172 15.443z" fill="#dc4955"/><path d="m330.143 214.4c-10.04 16.82-28.43 28.1-49.4 28.1-31.71 0-57.5-25.79-57.5-57.5 0-4.68.56-9.23 1.63-13.59l5.05 2.92c2.6 1.5 5.43 2.21 8.23 2.21 2.07 0 4.11-.39 6.03-1.15 4.9 26.76 28.4 47.11 56.56 47.11 10.74 0 20.79-2.96 29.4-8.1z" fill="#d82f3c"/><path d="m287.263 195.76c-.64 1.09-1.56 2.04-2.73 2.72l-29.76 17.31c.01.28.02.55.02.83 0 5.7-2.96 11.25-8.25 14.3l-.21.12c-8.96-6.71-15.91-15.98-19.74-26.71l3.45-1.99c5.55-3.2 12.19-2.81 17.23.45l29.72-17.27c3.58-2.09 8.17-.87 10.26 2.71 1.4 2.41 1.31 5.28.01 7.53z" fill="#d82f3c"/><path d="m280.737 192.001c2.6 0 5.127-1.354 6.514-3.771 2.06-3.594.817-8.177-2.776-10.237l-38.017-21.797c-3.593-2.06-8.176-.816-10.237 2.776-2.06 3.594-.817 8.177 2.776 10.237l38.017 21.797c1.175.675 2.458.995 3.723.995z" fill="#365f7e"/><path d="m131.452 79.367 114.972 66.379c7.892 4.556 10.596 14.648 6.039 22.539-4.556 7.892-14.648 10.596-22.539 6.039l-114.972-66.379c-7.876-4.547-10.588-14.611-6.062-22.499 4.543-7.919 14.655-10.644 22.562-6.079z" fill="#407194"/><path d="m109.124 85.066 141.976 85.231c-5.002 6.317-13.998 8.174-21.174 4.026l-114.972-66.377c-2.599-1.502-4.643-3.601-6.043-6.026-2.855-4.945-3.054-11.25.028-16.551.058-.103.123-.21.185-.303z" fill="#365f7e"/></g><path d="m296.743 403.144c4.143 0 7.5-3.357 7.5-7.5v-27.129c90.955-11.581 161.5-89.464 161.5-183.514 0-45.376-16.591-89.021-46.716-122.896-2.754-3.095-7.493-3.372-10.589-.62-3.095 2.753-3.373 7.493-.62 10.589 27.681 31.125 42.925 71.229 42.925 112.927 0 93.738-76.262 170-170 170s-170-76.262-170-170c0-17.491 2.643-34.681 7.845-51.177 8.932-.598 16.563-1.754 21.571-2.663l22.451 12.962c-4.557 13.118-6.867 26.838-6.867 40.878 0 68.925 56.075 125 125 125s125-56.075 125-125-56.075-125-125-125c-36.277 0-70.163 15.467-93.965 42.65l-23.202-13.396c-1.918-5.082-4.661-11.778-8.208-19.058 32.195-35.14 77.601-55.197 125.375-55.197 37.327 0 72.749 11.866 102.437 34.316 3.303 2.497 8.008 1.846 10.506-1.459 2.498-3.304 1.845-8.007-1.459-10.506-32.313-24.435-70.864-37.351-111.484-37.351-50.252 0-98.092 20.392-132.871 56.284-7.796-13.058-17.919-25.897-30.263-33.167-10.643-6.269-23.66-3.81-36.658 6.918-3.194 2.638-3.646 7.364-1.01 10.559 2.639 3.195 7.366 3.646 10.559 1.01 5.498-4.539 13.345-9.186 19.496-5.563 12.282 7.235 23.429 23.582 31.813 40.645l-6.606-3.814c-11.062-6.697-26.618-2.502-32.818 8.843-6.565 11.446-2.61 26.128 8.818 32.727l7.463 4.309c-15.918 1.168-36.926.56-51.865-7.892-9.823-5.558-5.322-26.804 3.899-43.972 1.96-3.648.591-8.196-3.059-10.156-3.648-1.96-8.196-.591-10.156 3.059-6.503 12.106-10.455 24.543-11.125 35.02-.867 13.515 3.77 23.851 13.054 29.104 12.903 7.3 28.77 9.855 43.413 10.246-4.699 16.466-7.083 33.52-7.083 50.841 0 93.705 70.03 171.351 160.5 183.375v87.624h-54.5c-15.163 0-27.5 12.337-27.5 27.5v11c0 9.649 7.851 17.5 17.5 17.5h178c9.649 0 17.5-7.851 17.5-17.5v-11c0-15.163-12.337-27.5-27.5-27.5h-55.5v-25.356c0-4.143-3.357-7.5-7.5-7.5s-7.5 3.357-7.5 7.5v25.356h-18v-86.241c5.953.306 12.04.319 18 .038v25.846c-.001 4.143 3.357 7.501 7.499 7.501zm-16-328.144c60.654 0 110 49.346 110 110s-49.346 110-110 110-110-49.346-110-110c0-11.381 1.727-22.519 5.129-33.221l40.607 23.445c-.489 3.227-.737 6.498-.737 9.777 0 35.841 29.159 65 65 65 9.223 0 18.142-1.902 26.51-5.653 3.78-1.694 5.471-6.132 3.776-9.911-1.695-3.781-6.133-5.469-9.911-3.776-6.426 2.88-13.281 4.341-20.375 4.341-27.57 0-50-22.43-50-50 0-.711.033-1.419.063-2.128 8.026 2.626 17.054.704 23.367-4.96l22.839 13.095c3.529 2.04 8.164.85 10.237-2.776 2.06-3.594.817-8.177-2.776-10.237l-22.806-13.076c1.687-8.149-.993-16.729-7.158-22.458 7.833-4.85 16.875-7.459 26.234-7.459 27.57 0 50 22.43 50 50 0 8.913-2.384 17.666-6.895 25.313-2.104 3.567-.918 8.166 2.649 10.271 3.506 2.085 8.154.95 10.271-2.649 5.871-9.953 8.975-21.342 8.975-32.934 0-35.841-29.159-65-65-65-14.596 0-28.597 4.872-40 13.806l-40.686-23.49c20.828-22.547 49.773-35.32 80.687-35.32zm-165.348 14.179c2.33-4.253 8.146-5.829 12.308-3.316l110.147 63.594c.002.001.004.002.006.004l4.818 2.782c4.298 2.481 5.775 7.997 3.295 12.295-2.481 4.298-7.997 5.775-12.295 3.294l-4.94-2.852c-.008-.005-.016-.009-.024-.014l-110.008-63.513c-4.285-2.476-5.768-7.982-3.307-12.274zm256.848 394.321v11c0 1.379-1.121 2.5-2.5 2.5h-178c-1.379 0-2.5-1.121-2.5-2.5v-11c0-6.893 5.607-12.5 12.5-12.5h158c6.893 0 12.5 5.607 12.5 12.5z"/></g></svg>